<svg xmlns="http://www.w3.org/2000/svg" xmlns:xlink="http://www.w3.org/1999/xlink" width="48" height="48" viewBox="0 0 48 48"><defs><clipPath id="a"><rect width="33.644" height="33.62" fill="#626262"/></clipPath></defs><g transform="translate(-1018 -640)"><g transform="translate(1018 640)" fill="#fff"><path d="M 24 47.5 C 20.82729911804199 47.5 17.74976921081543 46.87873077392578 14.85289001464844 45.65346145629883 C 12.05459022521973 44.46987915039062 9.541350364685059 42.77537155151367 7.382989883422852 40.61700820922852 C 5.224629878997803 38.45864868164062 3.530119895935059 35.94541168212891 2.346539974212646 33.14710998535156 C 1.121269941329956 30.25023078918457 0.5 27.17270088195801 0.5 24 C 0.5 20.82729911804199 1.121269941329956 17.74976921081543 2.346539974212646 14.85289001464844 C 3.530119895935059 12.05459022521973 5.224629878997803 9.541350364685059 7.382989883422852 7.382989883422852 C 9.541350364685059 5.224629878997803 12.05459022521973 3.530119895935059 14.85289001464844 2.346539974212646 C 17.74976921081543 1.121269941329956 20.82729911804199 0.5 24 0.5 C 27.17270088195801 0.5 30.25023078918457 1.121269941329956 33.14710998535156 2.346539974212646 C 35.94541168212891 3.530119895935059 38.45864868164062 5.224629878997803 40.61700820922852 7.382989883422852 C 42.77537155151367 9.541350364685059 44.46987915039062 12.05459022521973 45.65346145629883 14.85289001464844 C 46.87873077392578 17.74976921081543 47.5 20.82729911804199 47.5 24 C 47.5 27.17270088195801 46.87873077392578 30.25023078918457 45.65346145629883 33.14710998535156 C 44.46987915039062 35.94541168212891 42.77537155151367 38.45864868164062 40.61700820922852 40.61700820922852 C 38.45864868164062 42.77537155151367 35.94541168212891 44.46987915039062 33.14710998535156 45.65346145629883 C 30.25023078918457 46.87873077392578 27.17270088195801 47.5 24 47.5 Z" stroke="none"/><path d="M 24 1 C 20.89458084106445 1 17.8825798034668 1.607978820800781 15.04766845703125 2.807041168212891 C 12.3089714050293 3.965419769287109 9.849151611328125 5.623939514160156 7.736549377441406 7.736549377441406 C 5.623939514160156 9.849151611328125 3.965419769287109 12.3089714050293 2.807041168212891 15.04766845703125 C 1.607978820800781 17.8825798034668 1 20.89458084106445 1 24 C 1 27.10541915893555 1.607978820800781 30.1174201965332 2.807041168212891 32.95233154296875 C 3.965419769287109 35.6910285949707 5.623939514160156 38.15084838867188 7.736549377441406 40.26345062255859 C 9.849151611328125 42.37606048583984 12.3089714050293 44.03458023071289 15.04766845703125 45.19295883178711 C 17.8825798034668 46.39202117919922 20.89458084106445 47 24 47 C 27.10541915893555 47 30.1174201965332 46.39202117919922 32.95233154296875 45.19295883178711 C 35.6910285949707 44.03458023071289 38.15084838867188 42.37606048583984 40.26345062255859 40.26345062255859 C 42.37606048583984 38.15084838867188 44.03458023071289 35.6910285949707 45.19295883178711 32.95233154296875 C 46.39202117919922 30.1174201965332 47 27.10541915893555 47 24 C 47 20.89458084106445 46.39202117919922 17.8825798034668 45.19295883178711 15.04766845703125 C 44.03458023071289 12.3089714050293 42.37606048583984 9.849151611328125 40.26345062255859 7.736549377441406 C 38.15084838867188 5.623939514160156 35.6910285949707 3.965419769287109 32.95233154296875 2.807041168212891 C 30.1174201965332 1.607978820800781 27.10541915893555 1 24 1 M 24 0 C 37.25482940673828 0 48 10.74517059326172 48 24 C 48 37.25482940673828 37.25482940673828 48 24 48 C 10.74517059326172 48 0 37.25482940673828 0 24 C 0 10.74517059326172 10.74517059326172 0 24 0 Z" stroke="none" fill="#707070"/></g><g transform="translate(1025.178 647.19)"><g clip-path="url(#a)"><path d="M120.954,188.592a.728.728,0,0,1-.38-.735c.008-1.937-.019-3.875.014-5.812A2.136,2.136,0,0,0,119.379,180a7.885,7.885,0,0,0-2.6-.772,14.879,14.879,0,0,0-6.788.369,5.364,5.364,0,0,0-1.219.549,1.941,1.941,0,0,0-.985,1.8c.02,1.97,0,3.941.01,5.911a.728.728,0,0,1-.381.735h-.329a.739.739,0,0,1-.351-.716c.011-1.948.032-3.9,0-5.844a3.1,3.1,0,0,1,1.73-2.937,9.442,9.442,0,0,1,3.156-.943c.377-.065.758-.1,1.138-.15,0-.02.005-.052-.005-.058a4.872,4.872,0,0,1-2.164-4.881,3.267,3.267,0,0,1,1.352-2.487,3.752,3.752,0,0,1,5.647,1.6,5.073,5.073,0,0,1-2.049,5.817c.538.078,1.037.139,1.532.225a8.56,8.56,0,0,1,2.777.847,3.155,3.155,0,0,1,1.789,3.005c-.037,1.937-.015,3.874,0,5.811a.74.74,0,0,1-.352.716Zm-4.178-15.253a2.222,2.222,0,0,0-2.041-2.324,4.006,4.006,0,0,0-.949-.021,2.128,2.128,0,0,0-2.036,1.622,4.113,4.113,0,0,0,.763,3.775,2.06,2.06,0,0,0,3.36-.008,4.523,4.523,0,0,0,.9-3.043" transform="translate(-97.367 -154.972)" fill="#626262"/><path d="M0,85.557a6.268,6.268,0,0,1,.568-.42c1.264-.739,2.538-1.462,3.8-2.205a.781.781,0,0,1,.884-.008q1.978,1.164,3.975,2.3a.74.74,0,0,1,.41.718q-.011,2.3,0,4.6a.74.74,0,0,1-.4.721q-2.009,1.142-4,2.311a.736.736,0,0,1-.825,0c-1.32-.774-2.65-1.53-3.971-2.3A2.9,2.9,0,0,1,0,90.879V85.557m8.553,1.164a1.485,1.485,0,0,0-.168.068c-.956.55-1.914,1.1-2.86,1.661a.49.49,0,0,0-.181.362c-.014,1.06-.009,2.12-.007,3.18,0,.08.015.16.027.276,1.054-.609,2.076-1.194,3.089-1.794a.4.4,0,0,0,.124-.3c.009-1.071.006-2.142,0-3.212a2.253,2.253,0,0,0-.027-.24m-.5-.958c-1.074-.62-2.083-1.208-3.1-1.78a.43.43,0,0,0-.347.039c-.678.377-1.348.769-2.02,1.158-.318.184-.635.371-1,.585,1.077.622,2.1,1.217,3.137,1.8a.292.292,0,0,0,.237-.027c1.015-.578,2.026-1.163,3.095-1.778m-7,.91c0,1.233-.005,2.4.009,3.57a.427.427,0,0,0,.2.283c.542.328,1.094.638,1.642.954l1.325.762c.028-.047.047-.064.047-.081,0-1.158.006-2.317,0-3.475a.285.285,0,0,0-.11-.211c-1.016-.594-2.037-1.18-3.117-1.8" transform="translate(0 -75.524)" fill="#626262"/><path d="M142.944,321.782a.723.723,0,0,1-.363-.71c.009-1.487,0-2.974,0-4.461a1.931,1.931,0,0,1,.008-.229.516.516,0,0,1,1.031,0c.018.184.011.371.011.557,0,1.367-.005,2.734,0,4.1a.742.742,0,0,1-.368.741Z" transform="translate(-130.067 -288.162)" fill="#626262"/><path d="M228.965,321.8a.718.718,0,0,1-.368-.707c.009-1.5,0-3,0-4.494,0-.264.034-.507.3-.637a.509.509,0,0,1,.728.373,1.772,1.772,0,0,1,.019.327c0,1.465-.005,2.93.005,4.4a.749.749,0,0,1-.363.744Z" transform="translate(-208.532 -288.182)" fill="#626262"/><path d="M283.121,88.162c0,.777-.008,1.555,0,2.332a.686.686,0,0,1-.376.669q-2.05,1.173-4.092,2.361a.645.645,0,0,1-.708-.005q-2.042-1.188-4.092-2.361a.671.671,0,0,1-.369-.641q0-2.348,0-4.7a.7.7,0,0,1,.391-.662q2.024-1.154,4.035-2.329a.714.714,0,0,1,.8,0q2,1.166,4.007,2.312a.728.728,0,0,1,.41.717c-.015.766,0,1.533,0,2.3m-5.336,4.047c0-1.245,0-2.421-.009-3.6,0-.088-.111-.2-.2-.256-.931-.548-1.869-1.086-2.805-1.624a1.587,1.587,0,0,0-.23-.083c0,1.207,0,2.374.006,3.541a.318.318,0,0,0,.142.225c1.007.59,2.019,1.172,3.1,1.794m-2.714-6.52c1.059.611,2.06,1.195,3.071,1.761a.459.459,0,0,0,.378-.02c.679-.376,1.347-.771,2.019-1.16l.964-.559a.641.641,0,0,0-.092-.1c-.984-.57-1.967-1.141-2.955-1.7a.318.318,0,0,0-.264-.016c-1.025.581-2.045,1.173-3.122,1.794m3.766,6.475a.729.729,0,0,0,.128-.036c.984-.566,1.97-1.13,2.947-1.709a.421.421,0,0,0,.151-.313c.011-1.093.007-2.186.006-3.279,0-.058-.012-.116-.023-.212-1.057.61-2.079,1.195-3.092,1.795-.073.044-.11.2-.112.305-.009.776-.005,1.552-.005,2.328v1.12" transform="translate(-249.482 -75.451)" fill="#626262"/><path d="M136.783,5.44c0-.766.009-1.533,0-2.3a.7.7,0,0,1,.392-.691Q139.2,1.3,141.206.12a.686.686,0,0,1,.766-.005Q144,1.3,146.034,2.462a.664.664,0,0,1,.37.637q-.011,2.365,0,4.73a.665.665,0,0,1-.376.634q-2.021,1.158-4.034,2.331a.714.714,0,0,1-.8,0q-2-1.169-4.005-2.315a.72.72,0,0,1-.414-.711c.015-.777,0-1.555,0-2.332m8.046-2.456c-1.059-.612-2.075-1.205-3.1-1.781a.435.435,0,0,0-.351.043c-.743.416-1.478.846-2.215,1.272-.256.148-.51.3-.8.469,1.067.616,2.084,1.208,3.111,1.786a.4.4,0,0,0,.317-.039c.516-.284,1.024-.584,1.534-.879l1.5-.871M141.067,9.5c0-1.234.005-2.4-.009-3.573a.43.43,0,0,0-.205-.283c-.589-.355-1.188-.694-1.784-1.038L137.836,3.9c0,1.245,0,2.432,0,3.619a.248.248,0,0,0,.111.175c1.016.594,2.036,1.182,3.115,1.806m4.283-5.6c-.915.529-1.755,1.06-2.637,1.507a.967.967,0,0,0-.609,1.059c.049.989.014,1.982.014,2.973.048,0,.074.013.089,0,1-.575,2.008-1.15,3.007-1.734a.316.316,0,0,0,.13-.231c.008-1.169.006-2.338.006-3.579" transform="translate(-124.773 -0.001)" fill="#626262"/><path d="M49.793,226.545a1.476,1.476,0,0,0,.632,1.558c.669.612,1.291,1.275,1.93,1.919a.507.507,0,0,1,.109.656.478.478,0,0,1-.558.244.68.68,0,0,1-.3-.177c-.886-.877-1.771-1.754-2.641-2.647a.813.813,0,0,1-.209-.49c-.025-.589-.015-1.181-.008-1.771a.552.552,0,0,1,.538-.615c.314.007.5.241.51.634,0,.23,0,.459,0,.689" transform="translate(-44.458 -205.453)" fill="#626262"/><path d="M295,226.717a1.928,1.928,0,0,1-.824,2.02c-.692.618-1.321,1.307-1.98,1.962-.29.288-.6.32-.833.093s-.208-.533.088-.831c.763-.768,1.536-1.526,2.289-2.3a.808.808,0,0,0,.2-.479c.027-.458,0-.918.012-1.377a.526.526,0,0,1,.5-.577.544.544,0,0,1,.546.574c.012.306,0,.612,0,.918" transform="translate(-265.641 -205.456)" fill="#626262"/><path d="M185.616,141.514c0-.207-.011-.415,0-.621a.521.521,0,0,1,1.04,0c.016.414.015.828,0,1.242a.5.5,0,0,1-.523.512.507.507,0,0,1-.52-.516c-.012-.206,0-.414,0-.621" transform="translate(-169.321 -128.075)" fill="#626262"/></g></g></g></svg>