<svg xmlns="http://www.w3.org/2000/svg" xmlns:xlink="http://www.w3.org/1999/xlink" width="48" height="48" viewBox="0 0 48 48"><defs><clipPath id="a"><rect width="24.217" height="21.635" fill="#626262"/></clipPath></defs><g transform="translate(-1027 -661)"><g transform="translate(1027 661)" fill="#fff"><path d="M 24 47.5 C 20.82729911804199 47.5 17.74976921081543 46.87873077392578 14.85289001464844 45.65346145629883 C 12.05459022521973 44.46987915039062 9.541350364685059 42.77537155151367 7.382989883422852 40.61700820922852 C 5.224629878997803 38.45864868164062 3.530119895935059 35.94541168212891 2.346539974212646 33.14710998535156 C 1.121269941329956 30.25023078918457 0.5 27.17270088195801 0.5 24 C 0.5 20.82729911804199 1.121269941329956 17.74976921081543 2.346539974212646 14.85289001464844 C 3.530119895935059 12.05459022521973 5.224629878997803 9.541350364685059 7.382989883422852 7.382989883422852 C 9.541350364685059 5.224629878997803 12.05459022521973 3.530119895935059 14.85289001464844 2.346539974212646 C 17.74976921081543 1.121269941329956 20.82729911804199 0.5 24 0.5 C 27.17270088195801 0.5 30.25023078918457 1.121269941329956 33.14710998535156 2.346539974212646 C 35.94541168212891 3.530119895935059 38.45864868164062 5.224629878997803 40.61700820922852 7.382989883422852 C 42.77537155151367 9.541350364685059 44.46987915039062 12.05459022521973 45.65346145629883 14.85289001464844 C 46.87873077392578 17.74976921081543 47.5 20.82729911804199 47.5 24 C 47.5 27.17270088195801 46.87873077392578 30.25023078918457 45.65346145629883 33.14710998535156 C 44.46987915039062 35.94541168212891 42.77537155151367 38.45864868164062 40.61700820922852 40.61700820922852 C 38.45864868164062 42.77537155151367 35.94541168212891 44.46987915039062 33.14710998535156 45.65346145629883 C 30.25023078918457 46.87873077392578 27.17270088195801 47.5 24 47.5 Z" stroke="none"/><path d="M 24 1 C 20.89458084106445 1 17.8825798034668 1.607978820800781 15.04766845703125 2.807041168212891 C 12.3089714050293 3.965419769287109 9.849151611328125 5.623939514160156 7.736549377441406 7.736549377441406 C 5.623939514160156 9.849151611328125 3.965419769287109 12.3089714050293 2.807041168212891 15.04766845703125 C 1.607978820800781 17.8825798034668 1 20.89458084106445 1 24 C 1 27.10541915893555 1.607978820800781 30.1174201965332 2.807041168212891 32.95233154296875 C 3.965419769287109 35.6910285949707 5.623939514160156 38.15084838867188 7.736549377441406 40.26345062255859 C 9.849151611328125 42.37606048583984 12.3089714050293 44.03458023071289 15.04766845703125 45.19295883178711 C 17.8825798034668 46.39202117919922 20.89458084106445 47 24 47 C 27.10541915893555 47 30.1174201965332 46.39202117919922 32.95233154296875 45.19295883178711 C 35.6910285949707 44.03458023071289 38.15084838867188 42.37606048583984 40.26345062255859 40.26345062255859 C 42.37606048583984 38.15084838867188 44.03458023071289 35.6910285949707 45.19295883178711 32.95233154296875 C 46.39202117919922 30.1174201965332 47 27.10541915893555 47 24 C 47 20.89458084106445 46.39202117919922 17.8825798034668 45.19295883178711 15.04766845703125 C 44.03458023071289 12.3089714050293 42.37606048583984 9.849151611328125 40.26345062255859 7.736549377441406 C 38.15084838867188 5.623939514160156 35.6910285949707 3.965419769287109 32.95233154296875 2.807041168212891 C 30.1174201965332 1.607978820800781 27.10541915893555 1 24 1 M 24 0 C 37.25482940673828 0 48 10.74517059326172 48 24 C 48 37.25482940673828 37.25482940673828 48 24 48 C 10.74517059326172 48 0 37.25482940673828 0 24 C 0 10.74517059326172 10.74517059326172 0 24 0 Z" stroke="none" fill="#707070"/></g><g transform="translate(1039 674)"><g clip-path="url(#a)"><g transform="translate(0)"><g clip-path="url(#a)"><path d="M23.713,17.912,14.258,1.535A2.609,2.609,0,0,0,12.109,0,2.609,2.609,0,0,0,9.961,1.535L.5,17.912C-.677,19.959.29,21.635,2.654,21.635H21.564c2.364,0,3.331-1.675,2.149-3.723m-1.305,1.726a1.294,1.294,0,0,1-.844.194H2.654a1.311,1.311,0,0,1-.842-.191,1.293,1.293,0,0,1,.254-.828L11.522,2.437c.287-.5.542-.628.585-.634s.3.137.589.634l9.456,16.377a1.311,1.311,0,0,1,.256.825" transform="translate(0)" fill="#626262"/><path d="M31.19,41.613a1.349,1.349,0,1,0,1.349,1.349,1.349,1.349,0,0,0-1.349-1.349" transform="translate(-19.081 -26.608)" fill="#626262"/><rect width="2.464" height="5.731" transform="translate(10.877 8.255)" fill="#626262"/></g></g></g></g></g></svg>