<svg xmlns="http://www.w3.org/2000/svg" xmlns:xlink="http://www.w3.org/1999/xlink" width="22.742" height="26.12" viewBox="0 0 22.742 26.12"><defs><clipPath id="a"><rect width="22.742" height="26.12" fill="#626262"/></clipPath></defs><g clip-path="url(#a)"><path d="M0,70.442A10.022,10.022,0,0,1,.368,69.3a1.935,1.935,0,0,1,1.69-1.212c.649-.047,1.3-.03,1.953-.034q1.021-.007,2.043,0a.51.51,0,0,1,.567.5.5.5,0,0,1-.358.56,1.3,1.3,0,0,1-.308.032q-1.765,0-3.531,0a1.277,1.277,0,0,0-1.242.673A2.181,2.181,0,0,0,.946,70.9q0,8.047,0,16.095A1.539,1.539,0,0,0,2.44,88.738q6.529.013,13.058,0c.036,0,.072-.006.136-.012V88.45q0-1.977,0-3.954a2.566,2.566,0,0,1,2.459-2.831c.437,0,.874-.007,1.31,0a.493.493,0,0,1,.483.466.54.54,0,0,1-.271.558.855.855,0,0,1-.325.054c-.4.006-.8,0-1.2,0A1.471,1.471,0,0,0,16.6,84.3c-.048,1.194-.011,2.392-.011,3.624a1.925,1.925,0,0,0,.146-.134q2.466-2.831,4.926-5.669a.678.678,0,0,0,.129-.4q.01-5.344.006-10.687a2.749,2.749,0,0,1,.012-.331.5.5,0,0,1,.437-.461.474.474,0,0,1,.463.391,1.311,1.311,0,0,1,.03.3q0,5.56,0,11.121a.938.938,0,0,1-.241.656q-2.979,3.414-5.955,6.832a2.734,2.734,0,0,1-.336.283H2.043a.45.45,0,0,0-.1-.047,2.34,2.34,0,0,1-1.409-.963A3.512,3.512,0,0,1,0,87.48Z" transform="translate(0 -63.707)" fill="#626262"/><path d="M140.072,0c.91,0,1.82,0,2.73,0,.666,0,1.046.434,1.049,1.2q.005,1.529,0,3.059c0,.737-.378,1.181-1.019,1.184q-2.763.011-5.526,0c-.643,0-1.022-.443-1.026-1.176q-.008-1.555,0-3.11c0-.717.393-1.154,1.018-1.156.925,0,1.849,0,2.774,0m2.821,1.106h-5.656V4.339h5.656Z" transform="translate(-128.694 0)" fill="#626262"/><path d="M140.086,102.208q1.365,0,2.73,0c.68,0,1.055.431,1.058,1.215q0,1.5,0,3.008c0,.782-.376,1.219-1.055,1.221q-2.73.006-5.459,0c-.681,0-1.055-.437-1.058-1.218q0-1.5,0-3.008c0-.794.378-1.217,1.077-1.218h2.708m2.829,1.106h-5.656v3.232h5.656Z" transform="translate(-128.717 -95.678)" fill="#626262"/><path d="M140.11,204.408q1.354,0,2.708,0c.679,0,1.054.432,1.056,1.217q0,1.5,0,3.008c0,.782-.377,1.218-1.057,1.219q-2.73.006-5.459,0c-.68,0-1.054-.438-1.056-1.219q0-1.5,0-3.008c0-.785.377-1.215,1.057-1.216q1.376,0,2.752,0m2.814,1.105h-5.665v3.224h5.665Z" transform="translate(-128.718 -191.347)" fill="#626262"/><path d="M291.255,40.644c.553,0,1.107.012,1.659,0,.294-.009.431-.195.438-.55.009-.459,0-.918,0-1.377q0-1.377,0-2.754c0-.623-.116-.754-.668-.754-.836,0-1.673,0-2.509,0a.9.9,0,0,1-.284-.039.512.512,0,0,1-.318-.546.482.482,0,0,1,.388-.481,4.2,4.2,0,0,1,.532-.017c.829,0,1.658-.011,2.486.013a1.368,1.368,0,0,1,1.262,1.149,2.262,2.262,0,0,1,.052.5c0,1.437.01,2.873,0,4.31a1.527,1.527,0,0,1-.971,1.556,1.961,1.961,0,0,1-.57.078c-.5.01-1,0-1.567,0,.216.249.4.45.571.663a.59.59,0,0,1-.086.9.421.421,0,0,1-.569-.121c-.464-.524-.927-1.051-1.379-1.589a.582.582,0,0,1,0-.8q.687-.816,1.4-1.6a.424.424,0,0,1,.676,0,.582.582,0,0,1-.024.776c-.178.213-.377.4-.567.6l.05.078" transform="translate(-273.458 -31.938)" fill="#626262"/><path d="M37.22,142.732c-.2-.211-.414-.411-.6-.636a.543.543,0,0,1-.055-.634.4.4,0,0,1,.492-.243.692.692,0,0,1,.3.2q.66.739,1.3,1.5a.613.613,0,0,1,.007.893q-.652.766-1.318,1.516c-.24.271-.507.287-.71.061a.607.607,0,0,1,.046-.835c.163-.2.33-.389.5-.584,0,0,0-.014.006-.055-.494,0-.986.006-1.477,0a2.168,2.168,0,0,1-.593-.071,1.476,1.476,0,0,1-.978-1.443c-.02-1.36-.011-2.72-.012-4.08,0-.178,0-.357.011-.535a1.425,1.425,0,0,1,1.289-1.467c.976-.029,1.954-.017,2.93-.012a.493.493,0,0,1,.5.551.5.5,0,0,1-.521.527c-.873.005-1.747,0-2.62,0-.517,0-.64.141-.64.734q0,1.989,0,3.978c0,.59.125.732.646.732h1.458l.052-.1" transform="translate(-32.222 -127.588)" fill="#626262"/><path d="M46.295,315.171c.9,0,1.805,0,2.708,0,.713,0,1.08.425,1.082,1.24,0,.272,0,.544,0,.816,0,.759-.384,1.2-1.048,1.208-.747.006-1.495,0-2.242,0q-1.587,0-3.174,0c-.75,0-1.117-.424-1.118-1.286,0-.264,0-.527,0-.79.011-.751.387-1.184,1.04-1.188.917,0,1.835,0,2.753,0m-2.822,2.153h5.653v-1.057H43.473Z" transform="translate(-40.136 -295.033)" fill="#626262"/><path d="M197.619,315.168c.37,0,.739,0,1.109,0a.513.513,0,0,1,.544.528.518.518,0,0,1-.547.554q-1.109.006-2.218,0a.541.541,0,1,1,0-1.082c.37-.006.739,0,1.109,0" transform="translate(-185.063 -295.03)" fill="#626262"/><path d="M196.708,348.975a2.782,2.782,0,0,1,.338.046.5.5,0,0,1,.349.515.473.473,0,0,1-.355.506,2.435,2.435,0,0,1-.656.009.485.485,0,0,1-.4-.521.506.506,0,0,1,.4-.521c.1-.021.2-.023.319-.035" transform="translate(-185.087 -326.678)" fill="#626262"/><path d="M230.694,350.391a2.822,2.822,0,0,1-.314-.042.517.517,0,0,1-.367-.5.5.5,0,0,1,.368-.524,2.423,2.423,0,0,1,.635-.01.5.5,0,0,1,.41.51.52.52,0,0,1-.411.538,3.2,3.2,0,0,1-.322.031" transform="translate(-217.218 -326.978)" fill="#626262"/></g></svg>