<svg xmlns="http://www.w3.org/2000/svg" xmlns:xlink="http://www.w3.org/1999/xlink" width="22.742" height="22.742" viewBox="0 0 22.742 22.742"><defs><clipPath id="a"><rect width="22.742" height="22.742" fill="#626262"/></clipPath></defs><g clip-path="url(#a)"><path d="M0,17.412a1.573,1.573,0,0,1,.47-.786A1.287,1.287,0,0,1,1.74,16.38a.238.238,0,0,0,.289-.058c.917-.925,1.841-1.844,2.759-2.768a.67.67,0,0,0,.147-.241q2-5.56,3.984-11.123a.394.394,0,0,0-.011-.266A1.342,1.342,0,0,1,9.34.244a1.321,1.321,0,0,1,1.723.168q1.8,1.792,3.6,3.6a1.479,1.479,0,0,1,.143.2,2.718,2.718,0,0,1,2.049-.47,2.63,2.63,0,0,1,1.445.769,2.68,2.68,0,0,1,.273,3.4c.053.056.107.115.164.172Q20.514,9.86,22.3,11.643a1.334,1.334,0,0,1-1.47,2.2.363.363,0,0,0-.244-.021q-2.08.735-4.154,1.483a.709.709,0,0,0-.085.045,1.268,1.268,0,0,1,.264,1.169,1.736,1.736,0,0,1-.375.662c-1.018,1.044-2.052,2.072-3.088,3.1a1.316,1.316,0,0,1-1.925,0c-.671-.659-1.332-1.327-1.994-1.994a1.317,1.317,0,0,1-.143-.223l-1.01,1.014c-.549.55-1.1,1.1-1.646,1.652a.267.267,0,0,0-.075.216,1.345,1.345,0,0,1-.986,1.781c-.013,0-.024.016-.035.025H4.842a2.408,2.408,0,0,1-1-.7Q2.281,20.462.7,18.9a2.385,2.385,0,0,1-.7-1Zm19.909-4.305L9.636,2.835c-.125.348-.252.726-.4,1.1a.274.274,0,0,0,.081.346q.707.69,1.4,1.4a.434.434,0,0,1,.016.651A.444.444,0,0,1,10.1,6.3c-.124-.116-.242-.24-.362-.36l-.883-.886c-.029.064-.046.1-.058.13q-1.476,4.121-2.956,8.24a.249.249,0,0,0,.091.3c1.012,1.008,2.026,2.015,3.027,3.033a.381.381,0,0,0,.477.1q4.389-1.581,8.784-3.147c.575-.206,1.149-.414,1.692-.61M8.364,17.474,5.283,14.395l-2.61,2.611,3.079,3.079,2.612-2.611m13.555-4.834a3.257,3.257,0,0,0-.29-.4Q16.075,6.674,10.514,1.118a1.308,1.308,0,0,0-.147-.135.433.433,0,0,0-.584.049.442.442,0,0,0-.029.57,1.435,1.435,0,0,0,.136.146L20.976,12.832c.057.057.111.146.179.161a.817.817,0,0,0,.456.02c.123-.055.195-.227.308-.374M9.865,17.648c.049.056.086.1.127.143q.9.9,1.8,1.8a.471.471,0,0,0,.78,0q1.491-1.489,2.98-2.979a1.134,1.134,0,0,0,.119-.131.425.425,0,0,0-.016-.551c-.131-.162-.243-.286-.51-.18-.747.3-1.512.549-2.269.82L9.865,17.648m-4.319,3.69a1.465,1.465,0,0,0-.2-.3Q3.529,19.2,1.7,17.382a.77.77,0,0,0-.154-.125.421.421,0,0,0-.527.079.412.412,0,0,0-.074.51.908.908,0,0,0,.168.2Q2.9,19.838,4.686,21.624a1.075,1.075,0,0,0,.183.159.455.455,0,0,0,.677-.445M17.929,7.21a1.744,1.744,0,0,0-.358-2.173,1.708,1.708,0,0,0-2.028-.213L17.929,7.21" transform="translate(0 0)" fill="#626262"/><path d="M320.312,36.666c.107.085.269.154.323.272a.5.5,0,0,1-.008.43,7.972,7.972,0,0,1-.837.851.408.408,0,0,1-.562-.06.413.413,0,0,1-.026-.566c.253-.278.525-.54.8-.8a1.133,1.133,0,0,1,.31-.13" transform="translate(-300.172 -34.491)" fill="#626262"/><path d="M246.993,15.736a.478.478,0,0,1-.332.532.415.415,0,0,1-.5-.238c-.12-.372-.221-.751-.305-1.132a.41.41,0,0,1,.31-.454.4.4,0,0,1,.5.209c.133.382.231.776.319,1.083" transform="translate(-231.266 -13.567)" fill="#626262"/><path d="M338.171,118.242c.309.089.711.188,1.1.325a.4.4,0,0,1,.2.508.417.417,0,0,1-.481.3c-.36-.082-.717-.177-1.069-.288a.421.421,0,0,1-.274-.5c.045-.2.219-.345.525-.348" transform="translate(-317.606 -111.227)" fill="#626262"/><path d="M288.431,14.943c-.087.306-.185.7-.315,1.083a.43.43,0,0,1-.813-.213,10.594,10.594,0,0,1,.31-1.174.4.4,0,0,1,.481-.222c.21.054.339.22.337.527" transform="translate(-270.253 -13.548)" fill="#626262"/><path d="M338.156,78.086a.47.47,0,0,1-.507-.344.424.424,0,0,1,.269-.5c.345-.108.695-.2,1.048-.28a.42.42,0,0,1,.52.331.427.427,0,0,1-.309.515c-.36.108-.725.2-1.02.279" transform="translate(-317.607 -72.384)" fill="#626262"/><path d="M193.068,118.064a.439.439,0,1,1-.436-.442.441.441,0,0,1,.436.442" transform="translate(-180.788 -110.644)" fill="#626262"/></g></svg>