<svg xmlns="http://www.w3.org/2000/svg" xmlns:xlink="http://www.w3.org/1999/xlink" width="224.51" height="53.223" viewBox="0 0 224.51 53.223"><defs><clipPath id="a"><rect width="224.51" height="53.223" fill="none"/></clipPath></defs><g transform="translate(0)" clip-path="url(#a)"><path d="M27.091,17.726a5.889,5.889,0,0,1,.155,1.472v6.913l-10.176.01c-1.581,0-2.753-.139-3.514-.9C12.95,27.857,10.177,29.615,7,29.615A6.732,6.732,0,0,1,.006,22.956V20.614H2.739V22.7a4.016,4.016,0,0,0,4.315,4.373c2.107,0,4.119-1.328,4.119-3.144a1.754,1.754,0,0,0-1.816-1.718,1.878,1.878,0,0,0-.468.058V19.891a10.923,10.923,0,0,1,1.191-.019,4.631,4.631,0,0,1,4.373,2.694,2.232,2.232,0,0,0,2.323,1.19l7.869.005V19.41a3.732,3.732,0,0,0-.423-1.829l2.368-.925a3.167,3.167,0,0,1,.5,1.07m-2.329,12.1H27.11V27.652H24.762Zm8.081-13.113a9.041,9.041,0,0,0-2.791.423l.616,2.292a6.477,6.477,0,0,1,1.964-.346,2.449,2.449,0,0,1,2.052.847,4.227,4.227,0,0,1,.663,2.618v1.213H29.108v2.35h8.837V22.3a5.939,5.939,0,0,0-1.318-4.14,4.868,4.868,0,0,0-3.785-1.444m15.37-3.562H45.921V15.29h2.292Zm3.331,0H49.271V15.29h2.272ZM72.6,29.808h2.272V27.672H72.6Zm-3.35,0h2.292V27.672H69.255ZM50.1,26.111a6.428,6.428,0,0,1-4.3-1.28A4.593,4.593,0,0,1,44.3,21.143a4.121,4.121,0,0,1,4.447-4.429,4.268,4.268,0,0,1,3.235,1.116A4.741,4.741,0,0,1,53.046,21.2v2.56H72.258V19.41a3.732,3.732,0,0,0-.423-1.829l2.368-.925a3.217,3.217,0,0,1,.5,1.07,5.889,5.889,0,0,1,.155,1.472v6.913Zm.346-4.429a6.9,6.9,0,0,0-.164-1.752,1.289,1.289,0,0,0-.529-.8,2.023,2.023,0,0,0-1.04-.222,1.624,1.624,0,0,0-1.347.578,2.592,2.592,0,0,0-.462,1.656q0,2.619,2.734,2.618h.808Zm30.107-4.968a9.041,9.041,0,0,0-2.791.423l.617,2.292a6.463,6.463,0,0,1,1.964-.346,2.448,2.448,0,0,1,2.051.847,4.227,4.227,0,0,1,.663,2.618v1.213H76.818v2.35h8.838V22.3a5.933,5.933,0,0,0-1.319-4.14,4.868,4.868,0,0,0-3.785-1.444m49.457-3.562h-2.271V15.29h2.271Zm-3.331,0h-2.292V15.29h2.292Zm27.286,0h-2.271V15.29h2.271Zm1.541,12.959H88.019V12.363h2.6v11.4h11.913V17.023h2.6v1.964a4.945,4.945,0,0,1,1.809-1.694,5.089,5.089,0,0,1,2.445-.578,4.6,4.6,0,0,1,3.544,1.31,5.452,5.452,0,0,1,1.213,3.831v1.906H125.9V17.023h2.6v6.739h19.575a3.256,3.256,0,0,1-.963-1.28,4.128,4.128,0,0,1,.183-3.754,3.867,3.867,0,0,1,1.569-1.474,4.9,4.9,0,0,1,2.329-.539q4.3,0,4.295,4.526c0,.808.019,4.871.019,4.871m-43.964-3.736a4.552,4.552,0,0,0-.587-2.59,2.109,2.109,0,0,0-1.858-.837,3.7,3.7,0,0,0-4.024,4.025v.788h6.469Zm41.346-1.347a2.536,2.536,0,0,0-.414-1.618,1.908,1.908,0,0,0-2.657.077,2.554,2.554,0,0,0-.472,1.656A2.692,2.692,0,0,0,150,23.069a2.4,2.4,0,0,0,1.83.693h1.059Zm-2.253-7.876h-2.291V15.29h2.291Zm7.38,12.959h2.6V12.364h-2.6ZM4.223,33.676h2.44V31.431H4.223Zm3.689,0h2.421V31.431H7.913Z" transform="translate(0.002 3.591)" fill="#101820"/><path d="M0,30.248H5.176a6.8,6.8,0,0,1,4.954,1.725A6.829,6.829,0,0,1,11.9,37.091a8.458,8.458,0,0,1-.494,3.024,5.732,5.732,0,0,1-3.693,3.528,9.511,9.511,0,0,1-3.024.446H0ZM4.75,41.627a5.147,5.147,0,0,0,1.919-.32,3.154,3.154,0,0,0,1.289-.92,3.836,3.836,0,0,0,.727-1.426,6.758,6.758,0,0,0,.234-1.85,7.658,7.658,0,0,0-.2-1.832,3.584,3.584,0,0,0-.649-1.386,2.963,2.963,0,0,0-1.154-.872,4.328,4.328,0,0,0-1.736-.31H2.889v8.917Z" transform="translate(0 8.785)" fill="#101820"/><path d="M10.862,30.247H13.75v8.238a4.464,4.464,0,0,0,.621,2.618,2.393,2.393,0,0,0,2.074.853,2.366,2.366,0,0,0,2.065-.853,4.519,4.519,0,0,0,.61-2.618V30.247h2.889v8.238a8.3,8.3,0,0,1-.387,2.694,4.82,4.82,0,0,1-1.106,1.852A4.3,4.3,0,0,1,18.762,44.1a7.473,7.473,0,0,1-2.337.341,7.377,7.377,0,0,1-2.355-.35,4.368,4.368,0,0,1-1.754-1.076,4.638,4.638,0,0,1-1.087-1.87,8.906,8.906,0,0,1-.368-2.714Z" transform="translate(3.155 8.785)" fill="#101820"/><path d="M21.483,30.248h4.981a9.242,9.242,0,0,1,2.531.29,4.154,4.154,0,0,1,1.581.795,2.641,2.641,0,0,1,.8,1.182,4.7,4.7,0,0,1,.222,1.474,3.461,3.461,0,0,1-.348,1.532,2.847,2.847,0,0,1-1.318,1.221,5.06,5.06,0,0,1,1.017.688,2.924,2.924,0,0,1,.621.767,2.958,2.958,0,0,1,.31.834,4.152,4.152,0,0,1,.088.853,5.133,5.133,0,0,1-.262,1.648,3.161,3.161,0,0,1-.872,1.337,4.348,4.348,0,0,1-1.6.892,7.779,7.779,0,0,1-2.443.33H21.483Zm5.311,5.486a2.213,2.213,0,0,0,1.57-.427,1.651,1.651,0,0,0,.426-1.221,1.331,1.331,0,0,0-.552-1.212,3.607,3.607,0,0,0-1.871-.359H24.274v3.218Zm-.1,6.087a4.435,4.435,0,0,0,1.192-.135,1.911,1.911,0,0,0,.765-.4,1.407,1.407,0,0,0,.408-.61,2.519,2.519,0,0,0,.116-.795,1.8,1.8,0,0,0-.485-1.358,2.452,2.452,0,0,0-1.706-.465H24.274v3.76Z" transform="translate(6.24 8.785)" fill="#101820"/><path d="M35.3,30.248h2.754l5.2,13.84h-3.1l-1.1-3.2H34.2l-1.1,3.2H30.1Zm2.986,8.258L36.6,33.542l-1.667,4.963Z" transform="translate(8.744 8.785)" fill="#101820"/><rect width="2.888" height="13.841" transform="translate(54.067 39.032)" fill="#101820"/><path d="M49.68,30.247H59.12V32.71H52.568v3.024h6.166v2.482H52.568v3.412h6.959l-.29,2.462H49.68Z" transform="translate(14.429 8.785)" fill="#101820"/><path d="M70.679,39.379a6.389,6.389,0,0,1-.514,2.045,5.029,5.029,0,0,1-1.143,1.629,5.117,5.117,0,0,1-1.785,1.076,7.112,7.112,0,0,1-2.452.387,6.808,6.808,0,0,1-2.763-.524,5.431,5.431,0,0,1-2-1.472,6.331,6.331,0,0,1-1.212-2.3,10.273,10.273,0,0,1-.408-2.976,9.55,9.55,0,0,1,.446-3.025,6.581,6.581,0,0,1,1.279-2.288,5.54,5.54,0,0,1,2.017-1.453,6.749,6.749,0,0,1,2.675-.5,7.184,7.184,0,0,1,2.3.33,4.481,4.481,0,0,1,1.648.95,4.745,4.745,0,0,1,1.076,1.493,7.943,7.943,0,0,1,.6,1.958l-2.87.368a3.869,3.869,0,0,0-.823-1.919,2.434,2.434,0,0,0-1.929-.7,2.876,2.876,0,0,0-2.529,1.25,6.18,6.18,0,0,0-.863,3.538,5.87,5.87,0,0,0,.921,3.547,2.92,2.92,0,0,0,2.471,1.24,2.545,2.545,0,0,0,1.968-.688,3.462,3.462,0,0,0,.785-1.968Z" transform="translate(16.964 8.706)" fill="#101820"/><path d="M75.729,44.516a7.221,7.221,0,0,1-2.772-.5,5.633,5.633,0,0,1-2.075-1.454,6.515,6.515,0,0,1-1.307-2.287,10.238,10.238,0,0,1,0-6.048,6.435,6.435,0,0,1,1.318-2.288,5.722,5.722,0,0,1,2.084-1.453,7.813,7.813,0,0,1,5.524,0,5.544,5.544,0,0,1,2.065,1.453,6.479,6.479,0,0,1,1.289,2.288,9.511,9.511,0,0,1,.446,3.024,9.747,9.747,0,0,1-.436,3.025,6.367,6.367,0,0,1-1.28,2.287,5.539,5.539,0,0,1-2.063,1.454,7.286,7.286,0,0,1-2.793.5m-.019-2.482a3.122,3.122,0,0,0,2.714-1.24,6.019,6.019,0,0,0,.892-3.549,6.023,6.023,0,0,0-.892-3.537,3.57,3.57,0,0,0-5.428,0,6.023,6.023,0,0,0-.892,3.537A6.019,6.019,0,0,0,73,40.795a3.122,3.122,0,0,0,2.714,1.24" transform="translate(20.075 8.706)" fill="#101820"/><path d="M81.107,30.247h2.6l5.7,9.072V30.247h2.811V44.089H89.636l-5.719-8.994v8.994H81.107Z" transform="translate(23.557 8.785)" fill="#101820"/><path d="M98.113,44.516a7.22,7.22,0,0,1-2.772-.5,5.633,5.633,0,0,1-2.075-1.454,6.515,6.515,0,0,1-1.307-2.287,10.238,10.238,0,0,1,0-6.048,6.435,6.435,0,0,1,1.318-2.288,5.722,5.722,0,0,1,2.084-1.453,7.813,7.813,0,0,1,5.524,0,5.545,5.545,0,0,1,2.065,1.453,6.479,6.479,0,0,1,1.289,2.288,9.511,9.511,0,0,1,.446,3.024,9.746,9.746,0,0,1-.436,3.025,6.367,6.367,0,0,1-1.28,2.287,5.538,5.538,0,0,1-2.063,1.454,7.286,7.286,0,0,1-2.793.5m-.019-2.482a3.122,3.122,0,0,0,2.714-1.24,6.019,6.019,0,0,0,.892-3.549,6.023,6.023,0,0,0-.892-3.537,3.57,3.57,0,0,0-5.428,0,6.022,6.022,0,0,0-.892,3.537,6.018,6.018,0,0,0,.892,3.549,3.122,3.122,0,0,0,2.714,1.24" transform="translate(26.576 8.706)" fill="#101820"/><path d="M103.52,30.247h3.47l3.451,10.333,3.547-10.333h3.373V44.089h-2.656V34.861l-3.16,9.228H109.3l-3.18-9.209v9.209h-2.6Z" transform="translate(30.067 8.785)" fill="#101820"/><path d="M120.281,38.447l-4.788-8.2h3.217l2.986,5.6,3.082-5.6h3.064l-4.673,8.2v5.642h-2.888Z" transform="translate(33.544 8.785)" fill="#101820"/><path d="M180.743,0V52.875H150.69a34.624,34.624,0,0,1,9.68-18.708c6.946-7.105,13.419-10.08,13.44-16.538C173.838,9.02,163.122,9.02,162.7,5.737c-.435-3.409,8.167-3.207,8.27-5.737Z" transform="translate(43.767 0)" fill="#006845"/><path d="M169.116,0h-36.11V40.946c1.622-2.094,5.883-7.695,15.429-13.56,9.366-5.753,17.218-8.278,17-13.49-.176-4.172-6.456-4.288-6.472-7.62-.019-4.418,9.756-4.3,10.153-6.275" transform="translate(38.631 0)" fill="#a72b2a"/></g></svg>