<?xml version="1.0" encoding="utf-8"?>
<!-- Generator: Adobe Illustrator 26.0.0, SVG Export Plug-In . SVG Version: 6.00 Build 0)  -->
<svg version="1.1" id="Layer_1" xmlns="http://www.w3.org/2000/svg" xmlns:xlink="http://www.w3.org/1999/xlink" x="0px" y="0px"
	 viewBox="0 0 224.5 53.2" style="enable-background:new 0 0 224.5 53.2;" xml:space="preserve">
<style type="text/css">
	.st0{fill:#00909A;}
</style>
<g>
	<path class="st0" d="M150.2,28.5h2.6c2.9,0,5.2-2.3,5.2-5.2V18V7.5c0-2.9-2.3-5.2-5.2-5.2h-5.2v0h-5.2v20.9v5.2L150.2,28.5
		C150.2,28.5,150.2,28.5,150.2,28.5z M150.2,23.2h-2.6V7.5h2.6c1.4,0,2.6,1.2,2.6,2.6V18v2.6h0C152.8,22.1,151.6,23.2,150.2,23.2z"
		/>
	<path class="st0" d="M218.2,2.3c-1.4,0-2.6,1.2-2.6,2.6v23.6h2.6c1.4,0,2.6-1.2,2.6-2.6V2.3H218.2z"/>
	<path class="st0" d="M194.7,20.6c0-1.6-0.5-3.1-1.3-4.3c-0.1,0.1-0.1,0.1-0.2,0.2c-1.2,1.2-2.7,2-4.4,2.4c0.4,0.5,0.6,1,0.6,1.7
		c0,1.4-1.2,2.6-2.6,2.6c-1.4,0-2.6-1.2-2.6-2.6v-1.4H179v6.7c0,1.4,1.2,2.6,2.6,2.6h5.2C191.1,28.5,194.7,24.9,194.7,20.6z"/>
	<path class="st0" d="M184.2,10.1c0-1,0.6-1.9,1.4-2.3V2.3H179v9.3h5.2V10.1z"/>
	<path class="st0" d="M165.9,12.6V2.3h-2.6c-1.4,0-2.6,1.2-2.6,2.6v6.7h2.6C164.3,11.6,165.2,12,165.9,12.6z"/>
	<path class="st0" d="M176.3,11.6V4.9c0-1.4-1.2-2.6-2.6-2.6h-2.6v10.3c0.7-0.6,1.6-1,2.6-1H176.3z"/>
	<path class="st0" d="M199.9,28.5c1.4,0,2.6-1.2,2.6-2.6v-6.7h-5.2v9.3H199.9z"/>
	<path class="st0" d="M202.5,11.6V8.7h0V4.9c0-1,0.4-1.9,1-2.6h-1c-2.9,0-5.2,2.3-5.2,5.2v5.1c0.7-0.6,1.6-1,2.6-1L202.5,11.6z"/>
	<path class="st0" d="M213,16.5c-1.1,1.6-3,2.7-5.1,2.7h-0.1v6.7c0,1.4,1.2,2.6,2.6,2.6h2.6V16.5z"/>
	<path class="st0" d="M163.2,12.8h-2.6v10.5c0,2.9,2.3,5.2,5.2,5.2h3.1c0,0,0,0,0,0h2.1c2.9,0,5.2-2.3,5.2-5.2v-0.5V18v0h10.5
		c4.3,0,7.9-3.5,7.9-7.9c0-4.3-3.5-7.9-7.9-7.9v5.2c1.4,0,2.6,1.2,2.6,2.6c0,1.4-1.2,2.6-2.6,2.6h-8.4h0h-4.7
		c-1.4,0-2.6,1.2-2.6,2.6v7.9h-2.6c-1.4,0-2.6-1.2-2.6-2.6v-5.2C165.9,13.9,164.7,12.8,163.2,12.8z"/>
	<path class="st0" d="M185.4,19.1v1.4c0,0.8,0.6,1.4,1.4,1.4c0.8,0,1.4-0.6,1.4-1.4c0-0.8-0.6-1.4-1.4-1.4H185.4z"/>
	<path class="st0" d="M168.9,29.5v1.4c0,0.8,0.6,1.4,1.4,1.4c0.8,0,1.4-0.6,1.4-1.4c0-0.8-0.6-1.4-1.4-1.4H168.9z"/>
	<path class="st0" d="M165,29.5v1.4c0,0.8,0.6,1.4,1.4,1.4c0.8,0,1.4-0.6,1.4-1.4c0-0.8-0.6-1.4-1.4-1.4H165z"/>
	<path class="st0" d="M207.7,10.1c0,0.7-0.3,1.4-0.8,1.8c-0.5,0.5-1.1,0.8-1.9,0.8l-5.2,0c-0.9,0-1.7,0.5-2.2,1.2
		c-0.3,0.4-0.4,0.9-0.4,1.5V18h10.5c2.9,0,5.2-2.3,5.2-5.2V7.5c0-2.9-2.3-5.2-5.2-5.2h-1.4c-1.4,0-2.6,1.2-2.6,2.6v2.6l1.4,0
		C206.6,7.5,207.7,8.7,207.7,10.1z"/>
	<path class="st0" d="M143.3,47.8h1.8v-0.5c0-0.3,0-0.4-0.4-0.4h-1.4v-1.5h2.5v-0.9h-3.5v5.7c0,0.4,0.2,0.4,0.4,0.4h3.2v-0.9h-2.6
		V47.8z"/>
	<path class="st0" d="M148.5,49.8c-0.7,0-1-0.2-1-1.4c0-1,0.1-1.4,1-1.4c0.6,0,1,0.2,1,0.2l0.1-0.9c-0.2-0.1-0.6-0.2-1.1-0.2
		c-1.3,0-2,0.7-2,2.2c0,1.7,0.5,2.3,1.7,2.3c0.9,0,1.4-0.3,1.4-0.3l-0.1-0.8C149.6,49.6,149.1,49.8,148.5,49.8z"/>
	<path class="st0" d="M152.1,46.2c-1.3,0-1.9,0.7-1.9,2.2c0,1.7,0.6,2.3,1.9,2.3c1.2,0,1.9-0.6,1.9-2.3
		C154,46.9,153.5,46.2,152.1,46.2z M152.1,49.8c-0.7,0-0.9-0.2-0.9-1.4c0-1,0.1-1.4,0.9-1.4c0.8,0,0.9,0.4,0.9,1.4
		C153,49.7,152.8,49.8,152.1,49.8z"/>
	<path class="st0" d="M156.8,46.2c-0.7,0-1,0.3-1.2,0.6c0-0.5,0-0.6-0.5-0.6h-0.3v4c0,0.4,0.2,0.4,0.4,0.4h0.5v-2.7
		c0-0.6,0.1-0.9,0.9-0.9c0.6,0,0.8,0.1,0.8,1v2.2c0,0.4,0.2,0.4,0.4,0.4h0.5v-2.5C158.4,46.8,158.1,46.2,156.8,46.2z"/>
	<path class="st0" d="M161.1,46.2c-1.3,0-1.9,0.7-1.9,2.2c0,1.7,0.6,2.3,1.9,2.3c1.2,0,1.9-0.6,1.9-2.3
		C162.9,46.9,162.5,46.2,161.1,46.2z M161.1,49.8c-0.7,0-0.9-0.2-0.9-1.4c0-1,0.1-1.4,0.9-1.4c0.8,0,0.9,0.4,0.9,1.4
		C162,49.7,161.8,49.8,161.1,49.8z"/>
	<path class="st0" d="M168.4,46.2c-0.7,0-1.1,0.3-1.3,0.6c-0.2-0.4-0.6-0.6-1.3-0.6c-0.6,0-1,0.3-1.2,0.6c0-0.5,0-0.6-0.5-0.6h-0.3
		v4c0,0.4,0.2,0.4,0.4,0.4h0.5v-2.7c0-0.6,0.1-0.9,0.9-0.9c0.6,0,0.8,0.1,0.8,1v2.2c0,0.4,0.2,0.4,0.4,0.4h0.5v-2.5V48
		c0-0.6,0.1-0.9,0.9-0.9c0.6,0,0.8,0.1,0.8,1v2.2c0,0.4,0.2,0.4,0.4,0.4h0.5v-2.5C169.9,46.8,169.7,46.2,168.4,46.2z"/>
	<path class="st0" d="M172.3,49.6l-1-3.3h-1l1.2,3.8c0.1,0.4,0.2,0.5,0.5,0.6c-0.1,0.4-0.3,1-0.4,1.6c0,0,0.1,0,0.4,0
		c0.4,0,0.5,0,0.6-0.5l0.3-1.2l1.3-4.4h-0.9L172.3,49.6z"/>
	<path class="st0" d="M179,46.2c-0.5,0-1.2,0.1-1.4,0.2l0,0.9c0.1,0,0.7-0.2,1.3-0.2c0.7,0,0.8,0.3,0.8,1.1c-0.2,0-0.4-0.1-0.8-0.1
		c-1.4,0-1.7,0.7-1.7,1.4c0,0.6,0.2,1.3,1.4,1.3c0.9,0,1.1-0.2,1.2-0.6c0,0.4,0,0.6,0.4,0.6h0.4v-2.5
		C180.6,46.6,180.2,46.2,179,46.2z M179.7,49.2c0,0.5-0.2,0.7-0.8,0.7c-0.7,0-0.7-0.2-0.7-0.5c0-0.4,0-0.6,0.9-0.6
		c0.4,0,0.5,0,0.6,0V49.2z"/>
	<path class="st0" d="M183.7,46.2c-0.7,0-1,0.3-1.2,0.6c0-0.5,0-0.6-0.5-0.6h-0.3v4c0,0.4,0.2,0.4,0.4,0.4h0.5v-2.7
		c0-0.6,0.1-0.9,0.9-0.9c0.6,0,0.8,0.1,0.8,1v2.2c0,0.4,0.2,0.4,0.4,0.4h0.5v-2.5C185.2,46.8,185,46.2,183.7,46.2z"/>
	<path class="st0" d="M189.3,44.4h-0.5v2c-0.2-0.1-0.5-0.2-0.8-0.2c-1.3,0-1.9,0.7-1.9,2.2c0,1.7,0.5,2.3,1.8,2.3
		c0.5,0,0.9-0.1,1.1-0.5c0,0.3,0.1,0.5,0.5,0.5h0.3v-5.8C189.7,44.4,189.6,44.4,189.3,44.4z M187.9,49.8c-0.7,0-0.9-0.2-0.9-1.4
		c0-1,0.1-1.4,0.9-1.4c0.9,0,0.9,0.4,0.9,1.4C188.8,49.7,188.7,49.8,187.9,49.8z"/>
	<path class="st0" d="M197.3,44.5h-4.4v0.9h1.7v4.8c0,0.4,0.2,0.4,0.4,0.4h0.6v-5.3h1.7V44.5z"/>
	<path class="st0" d="M198.9,46.2c-1.3,0-1.9,0.7-1.9,2.2c0,1.7,0.6,2.3,1.9,2.3c1.2,0,1.9-0.6,1.9-2.3
		C200.8,46.9,200.3,46.2,198.9,46.2z M198.9,49.8c-0.7,0-0.9-0.2-0.9-1.4c0-1,0.1-1.4,0.9-1.4c0.8,0,0.9,0.4,0.9,1.4
		C199.8,49.7,199.6,49.8,198.9,49.8z"/>
	<path class="st0" d="M204.1,49c0,0.6-0.1,0.8-0.7,0.8c-0.7,0-0.9,0-0.9-0.8v-2.8h-0.9v2.6c0,1.4,0.4,1.8,1.6,1.8
		c0.6,0,1-0.2,1.1-0.6c0,0.4,0,0.6,0.5,0.6h0.3v-4.4h-0.9V49z"/>
	<path class="st0" d="M206.9,46.8c0-0.5,0-0.6-0.5-0.6h-0.3v4c0,0.4,0.2,0.4,0.4,0.4h0.5v-2.6c0-0.8,0.2-1,0.8-1c0.4,0,0.7,0,0.7,0
		l0-0.8c0,0-0.2-0.1-0.6-0.1C207.4,46.2,207.1,46.4,206.9,46.8z"/>
	<path class="st0" d="M209.7,44.5c-0.4,0-0.5,0.2-0.5,0.5s0.1,0.5,0.5,0.5s0.5-0.2,0.5-0.5S210,44.5,209.7,44.5z"/>
	<path class="st0" d="M209.7,46.2h-0.5v4c0,0.4,0.2,0.4,0.4,0.4h0.5v-4C210.2,46.2,210,46.2,209.7,46.2z"/>
	<path class="st0" d="M212.8,48.1c-0.7-0.2-0.8-0.3-0.8-0.6c0-0.3,0.1-0.5,0.7-0.5c0.6,0,1,0.2,1,0.2l0.1-0.8
		c-0.2-0.1-0.6-0.2-1.1-0.2c-1.1,0-1.7,0.4-1.7,1.4c0,0.7,0.1,0.9,1.2,1.3c0.7,0.2,0.8,0.2,0.8,0.6c0,0.4-0.2,0.4-0.7,0.4
		c-0.9,0-1.3-0.3-1.3-0.3l-0.2,0.8c0,0,0.4,0.4,1.4,0.4c1.1,0,1.8-0.4,1.8-1.3C214,48.7,213.9,48.4,212.8,48.1z"/>
	<path class="st0" d="M219.2,46.2c-0.7,0-1.1,0.3-1.3,0.6c-0.2-0.4-0.6-0.6-1.3-0.6c-0.6,0-1,0.3-1.2,0.6c0-0.5,0-0.6-0.5-0.6h-0.3
		v4c0,0.4,0.2,0.4,0.4,0.4h0.5v-2.7c0-0.6,0.1-0.9,0.9-0.9c0.6,0,0.8,0.1,0.8,1v2.2c0,0.4,0.2,0.4,0.4,0.4h0.5v-2.5V48
		c0-0.6,0.1-0.9,0.9-0.9c0.6,0,0.8,0.1,0.8,1v2.2c0,0.4,0.2,0.4,0.4,0.4h0.5v-2.5C220.7,46.8,220.5,46.2,219.2,46.2z"/>
	<path class="st0" d="M144.4,35.4c0,0.3,0.2,0.5,0.5,0.5s0.5-0.2,0.5-0.5c0-0.3-0.2-0.5-0.5-0.5S144.4,35,144.4,35.4z"/>
	<path class="st0" d="M143.2,35.4c0,0.3,0.2,0.5,0.5,0.5c0.3,0,0.5-0.2,0.5-0.5c0-0.3-0.2-0.5-0.5-0.5
		C143.4,34.9,143.2,35,143.2,35.4z"/>
	<path class="st0" d="M155.6,39.5l0.1-0.8c-1.3-0.3-1.7-0.9-2.7-0.9c-0.7,0-1.1,0.3-1.1,0.3v0.8c0,0,0.5-0.2,1-0.2
		c0.7,0,1.2,0.4,1.8,0.6c-0.2,0.2-0.5,0.4-0.7,0.5c-0.5,0.3-1,0.3-2.5,0.3h-1.3h-0.2h-1.2h-0.2h-1.2h-0.2h-1.2
		c-0.7,0-0.8-0.1-0.8-0.6v-3h-0.4c-0.3,0-0.4,0-0.4,0.4V37c-1.1,0.4-2.1,0.5-2.1,1.7c0,0.6,0.1,1.4,1.2,1.4c0.6,0,0.8-0.2,0.9-0.6
		c0,1.2,0.5,1.5,1.5,1.5v0h1.3h0.2h1.2h0.2h1.2h0.2h1.3h0.1h0.2c0.9,0,1.9,0,2.8-0.6C155,40.1,155.4,39.7,155.6,39.5z M144.5,38.6
		c0,0.4-0.1,0.6-0.7,0.6c-0.5,0-0.6-0.1-0.6-0.6c0-0.5,0.2-0.5,1.3-0.8V38.6z"/>
	<path class="st0" d="M166.4,42.1c0-0.3-0.1-0.5-0.5-0.5c-0.3,0-0.5,0.2-0.5,0.5c0,0.3,0.2,0.5,0.5,0.5
		C166.3,42.6,166.4,42.4,166.4,42.1z"/>
	<path class="st0" d="M165.4,42.1c0-0.3-0.2-0.5-0.5-0.5c-0.3,0-0.4,0.2-0.4,0.5c0,0.3,0.1,0.5,0.4,0.5
		C165.2,42.6,165.4,42.4,165.4,42.1z"/>
	<path class="st0" d="M174,35.2v4.3c0,0.5-0.4,0.5-0.9,0.5c-0.5,0-0.7,0-0.7-0.6v-1.6h-0.9v1.8c0,0.5-0.2,0.5-0.6,0.5
		c-0.4,0-0.5-0.1-0.5-0.8v-1.2h-0.8v1.5c0,0.5-0.2,0.5-0.6,0.5c-0.5,0-0.6-0.1-0.6-0.8v-1.2h-0.8v1.5c0,0.5-0.2,0.5-0.7,0.5
		c-0.5,0-0.8,0-0.8-0.6v-1.6h-0.9v1.7c0,0.5-0.4,0.5-0.9,0.5h-1.3h-0.2H161h-0.2h-1.2h-0.2h-1.2c-0.7,0-0.7-0.2-0.7-0.7v-4.6h-0.5
		c-0.3,0-0.4,0-0.4,0.4v4.3c0,1.1,0.5,1.4,1.5,1.4v0h1.3h0.2h1.2h0.2h1.8h0.2h1.3v0c0.2,0,0.5,0,0.7-0.2c0.2-0.1,0.3-0.3,0.4-0.5
		c0.3,0.5,0.7,0.7,1.4,0.7h0c0,0,0,0,0,0c0,0,0,0,0,0h0c0.6,0,0.9-0.2,1-0.6c0.1,0.5,0.3,0.7,1.1,0.7c0.6,0,0.8-0.3,0.9-0.6
		c0.1,0.3,0.4,0.6,1,0.6c0.6,0,0.8-0.3,0.9-0.7c0.2,0.5,0.7,0.6,1.4,0.6h0c0,0,0,0,0,0c0,0,0,0,0,0l0,0c1.3,0,1.8-0.8,1.8-1.8v-4.4
		h-0.5C174.1,34.8,174,34.8,174,35.2z"/>
	<path class="st0" d="M175.7,35.2V41h0.5c0.3,0,0.4,0,0.4-0.4v-5.8h-0.5C175.9,34.8,175.7,34.8,175.7,35.2z"/>
	<path class="st0" d="M179.9,37.7c-1.3,0-1.6,1-1.6,1.8c0,0.8,0.1,1.5,1.4,1.5c0.6,0,0.9-0.2,1-0.4c0,1-0.3,1.1-1.2,1.1
		c-0.6,0-1-0.2-1-0.2l-0.2,1c0,0,0.4,0.2,1.2,0.2c1.6,0,2-0.9,2-2.5C181.5,38.5,181.1,37.7,179.9,37.7z M179.8,40.1
		c-0.7,0-0.7-0.2-0.7-0.6c0-0.4,0-0.8,0.7-0.8c0.8,0,0.8,0.6,0.8,1.2C180.6,40,180.3,40.1,179.8,40.1z"/>
	<path class="st0" d="M188.2,39.3c0-1.1-0.3-1.6-1.9-2.5l-0.5,0.8c1.4,0.8,1.6,1,1.6,1.7c0,0.6-0.2,0.7-1.2,0.7c-0.6,0-1.1,0-1.1,0
		l-0.1,1c0,0,0.4,0.1,1.3,0.1C187.6,41,188.2,40.5,188.2,39.3z"/>
	<path class="st0" d="M205.5,36.7c0,0.3,0.2,0.5,0.5,0.5s0.5-0.2,0.5-0.5c0-0.3-0.2-0.5-0.5-0.5S205.5,36.3,205.5,36.7z"/>
	<path class="st0" d="M204.4,36.7c0,0.3,0.2,0.5,0.5,0.5c0.3,0,0.5-0.2,0.5-0.5c0-0.3-0.2-0.5-0.5-0.5
		C204.5,36.2,204.4,36.3,204.4,36.7z"/>
	<path class="st0" d="M211.4,39v-0.2c0-1.7-0.5-2.3-1.5-2.3c-1.2,0-1.5,0.9-1.5,1.7c0,0.6,0.1,1.3,1.4,1.3c0.5,0,0.8-0.2,0.9-0.4
		c0,0.6,0,0.8-1.4,0.8h-1H208h-1.3c-0.5,0-0.8,0-0.8-0.6v-1.6H205v1.7c0,0.5-0.4,0.5-0.9,0.5c-0.3,0-0.5,0-0.7-0.1
		c0.1-0.2,0.1-0.5,0.1-0.7c0-1.4-0.6-2-1.6-2c-1.4,0-1.9,1-2.9,2.8c-0.3,0-0.3-0.2-0.3-0.7V38h-0.8v1.5c0,0.5-0.2,0.5-0.7,0.5h-1.3
		h-0.2h-1.2h-0.2h-1.2h-0.2h-2.1c-0.7,0-0.7-0.2-0.7-0.7v-4.6h-0.5c-0.3,0-0.4,0-0.4,0.4v4.3c0,1.1,0.5,1.4,1.5,1.4v0h2.2h0.2h1.2
		h0.2h1.2h0.2h1.3v0c0.6,0,0.8-0.2,0.9-0.7c0.2,0.5,0.5,0.7,1.1,0.7h2.4c0.7,0,1.2-0.1,1.5-0.5c0.1,0.3,0.3,0.5,1,0.5l0,0
		c0,0,0,0,0,0c0,0,0,0,0,0h0c0.3,0,0.6,0,0.8-0.2c0.2-0.1,0.3-0.3,0.4-0.5c0.2,0.5,0.7,0.6,1.3,0.6v0h1.4h0.1h0.9
		C210.5,40.9,211.4,40.6,211.4,39z M209.7,38.6c-0.6,0-0.7-0.2-0.7-0.5c0-0.5,0.1-0.6,0.7-0.6c0.7,0,0.7,0.4,0.7,1
		C210.4,38.6,210.2,38.6,209.7,38.6z M201.7,40h-1.9c0.9-1.5,1.1-1.8,2-1.8c0.6,0,0.9,0.1,0.9,1.1C202.7,39.9,202.3,40,201.7,40z"/>
	<path class="st0" d="M209.9,35.6c0,0.3,0.2,0.5,0.5,0.5c0.3,0,0.5-0.2,0.5-0.5c0-0.3-0.2-0.5-0.5-0.5
		C210.1,35.1,209.9,35.2,209.9,35.6z"/>
	<path class="st0" d="M208.8,35.6c0,0.3,0.2,0.5,0.5,0.5c0.3,0,0.5-0.2,0.5-0.5c0-0.3-0.2-0.5-0.5-0.5
		C208.9,35.1,208.8,35.2,208.8,35.6z"/>
	<path class="st0" d="M211.9,36c1.2,1.8,1.2,2.8,1.2,3.8c-0.4,0.1-0.8,0.2-1.2,0.3l0.3,0.9c1.3-0.3,2.3-0.7,2.6-1l0,0
		c0.2,0.6,0.6,0.8,1.4,0.8v0h1.3h0.2h1.3v0c1.2,0,1.7-0.9,1.7-1.8v-4.4h-0.5c-0.3,0-0.4,0-0.4,0.4v4.3c0,0.5-0.4,0.5-0.9,0.5h-1.3
		h-0.2h-1.2c-0.7,0-0.7-0.2-0.7-0.7v-4.6h-0.5c-0.3,0-0.4,0-0.4,0.4v4c-0.2,0.1-0.5,0.2-0.8,0.4c0-1.6-0.2-2.4-1.4-4.1L211.9,36z"/>
</g>
</svg>
